<svg xmlns="http://www.w3.org/2000/svg" version="1.0" width="512.000000pt" height="512.000000pt" viewBox="0 0 512.000000 512.000000" preserveAspectRatio="xMidYMid meet">

<g transform="translate(0.000000,512.000000) scale(0.100000,-0.100000)" fill="#ffffff" stroke="none">
<path d="M2468 4796 c-105 -30 -180 -95 -227 -196 l-26 -55 -3 -1467 -2 -1468 -53 -38 c-289 -214 -375 -597 -203 -907 53 -95 178 -219 271 -267 120 -62 203 -83 335 -83 132 0 215 21 335 83 93 48 218 172 271 267 114 206 117 459 7 668 -42 79 -130 179 -210 239 l-53 39 0 1454 c0 1449 0 1454 -21 1510 -38 102 -125 188 -217 215 -60 18 -153 21 -204 6z m172 -101 c62 -22 115 -69 144 -127 l26 -52 0 -1482 0 -1482 64 -41 c74 -49 161 -137 199 -201 173 -298 60 -680 -246 -834 -220 -111 -483 -75 -666 90 -208 189 -256 499 -114 744 38 64 125 152 199 201 l64 41 2 812 3 811 137 3 c126 2 139 4 148 23 15 27 3 58 -27 70 -13 5 -78 9 -144 9 l-119 0 2 183 3 182 62 3 c51 2 65 7 73 23 26 47 -14 79 -96 79 l-44 0 2 183 3 182 140 5 140 5 10 29 c8 24 6 31 -14 47 -20 16 -40 19 -152 19 l-129 0 0 148 c0 139 2 151 26 200 56 113 187 168 304 127z" fill="#ffffff"/>
<path d="M2530 2720 c-13 -8 -16 -96 -20 -660 l-5 -651 -66 -22 c-83 -28 -136 -63 -183 -120 -158 -193 -115 -470 95 -602 59 -38 123 -55 209 -55 86 0 150 17 209 55 210 132 253 409 95 602 -47 57 -100 92 -183 120 l-66 22 -5 651 c-5 691 -4 670 -50 670 -8 0 -22 -5 -30 -10z" fill="#ffffff"/>
</g>
</svg>